<?xml version="1.0" encoding="utf-8" ?><svg xmlns="http://www.w3.org/2000/svg" xmlns:xlink="http://www.w3.org/1999/xlink" width="1024" height="1024" viewBox="0 0 1024 1024"><path fill="#10AE6F" d="M653.277 486.554C643.272 491.299 633.66 496.203 623.348 500.88C609.705 507.069 600.045 489.237 596.249 478.755C593.275 470.539 594.605 461.37 598.705 453.569C596.663 462.954 597.21 469.501 601.642 478.191C604.76 484.302 609.607 489.85 616.313 491.992C626.519 490.743 634.359 485.107 642.982 479.812C639.646 480.041 636.21 480.384 632.869 480.675L632.417 480.476L632.374 480.113L633.025 479.455L631.815 478.141C639.525 475.742 647.234 473.338 654.919 470.866C657.61 470 665.897 466.513 668.012 466.358C667.983 468.625 667.639 472.504 669.678 473.852C676.013 478.04 680.554 473.799 683.263 468.855C683.405 476.868 681.442 483.016 680.993 490.699C680.256 503.313 680.648 516.506 680.963 529.152C674.106 536.169 668.94 536.996 668.319 547.34C663.095 541.27 657.114 535.491 664.563 528.685C663.673 526.78 662.751 525.342 662.793 523.286C664.435 520.149 668.119 517.206 668.86 515.314C672.546 505.904 671.913 487.274 669.189 477.925L668.473 485.73C665.123 487.896 659.946 491.116 657.073 493.745C649.995 500.221 645.451 506.221 637.404 512.009C606.009 534.587 566.396 542.124 528.547 535.42C521.153 534.11 508.852 528.012 501.864 524.73C492.666 545.343 480.748 561.366 458.928 570.125C450.919 573.34 443.207 573.897 435.831 577.082C434.087 577.835 428.895 584.245 426.565 585.546C424.147 586.896 421.143 587.647 418.942 588.853C414.352 591.369 411.485 597.985 409.24 602.326C406.636 607.362 405.451 617.045 399.931 618.923C396.209 620.19 394.954 620.507 391.502 623.078C389.642 624.464 388.148 627.149 386.599 627.405C379.897 623.372 388.41 612.744 390.567 607.007C398.854 601.578 402.591 597.711 407.105 588.689C408.971 586.023 412.949 572.968 415.06 571.806C419.868 569.161 428.206 567.686 433.58 566.288C449.699 562.095 472.297 547.059 480.462 532.396C490.99 513.487 490.545 496.915 508.241 480.85C507.426 483.148 506.253 486.149 506.067 488.538C505.039 501.774 518.118 508.922 528.873 512.478C548.521 518.974 568.947 515.229 586.097 504.122C571.073 500.776 566.267 500.098 554.497 489.882C571.504 498.638 584.218 500.35 602.706 495.289C606.253 500.041 609.543 504.297 615.98 505.254C625.709 506.7 646.079 492.724 654.847 487.212L653.277 486.554Z"/><path fill="#ACE8D4" d="M653.277 486.554C655.659 485.098 658.465 483.133 661.074 482.406L661.299 482.509L660.274 482.637L660.274 483.649C658.662 484.756 656.523 486.324 654.847 487.212L653.277 486.554Z"/><path fill="#10AE6F" d="M548.218 280.769L548.533 280.273L549.069 279.452C563.75 256.688 572.693 286.665 582.465 286.38C603.703 285.761 602.009 266.845 628.233 270.789L628.559 271.446C618.169 279.393 611.527 286.98 603.985 297.761C598.89 305.044 595.154 314.375 588.141 319.851C584.756 322.494 579.874 323.993 575.905 325.604C583.429 325.295 586.192 324.145 592.796 320.755C587.715 336.121 581.38 348.698 567.94 358.101C576.598 354.968 577.604 353.303 583.751 346.314C580.641 364.844 576.612 381.672 564.373 396.806C577.057 399.682 580.942 401.419 588.292 412.715C583.54 409.785 577.705 406.146 572.546 404.231C550.08 395.891 525.296 392.945 504.358 380.57C495.725 375.468 486.513 366.674 479.772 359.234C472.142 350.91 465.64 338.89 454.732 334.494C442.201 329.444 427.095 329.48 413.74 328.432C404.86 327.736 399.824 328.809 392.005 323.422C398.007 324.161 404.025 324.961 410.081 325.383C424.862 326.413 440.91 325.523 455.082 330.217C466.71 334.068 471.7 346.028 478.492 355.065C486.755 365.986 499.143 374.854 511.053 381.508C509.197 376.719 508.259 374.46 507.949 369.321L508.725 369.374L508.568 369.26C516.441 379.33 526.453 381.28 536.218 372.086C548.857 360.185 553.167 351.572 570.797 346.806C565.365 347.013 561.024 347.372 556.017 349.739C544.132 355.357 539.049 365.563 523.743 363C518.981 362.228 514.552 360.072 511.007 356.801C506.258 352.356 503.599 346.379 506.28 340.08C509.707 343.361 507.807 350.067 518.05 348.886C532.877 347.175 537.631 335.6 552.246 330.964L551.585 329.354C538.531 331.322 532.914 325.377 523.147 336.581C525.767 328.237 527.373 327.763 535.296 324.444C524.097 314.666 504.075 309.659 494.693 324.803L493.39 325.154C494.17 318.321 496.726 314.603 502.07 310.411C517.914 297.916 534.551 313.428 550.447 316.159C559.981 317.797 567.136 309.025 573.62 303.694L572.862 302.8C566.948 306.766 560.721 312.109 553.2 311.099C545.018 310 538.857 302.888 538.916 294.635C538.932 292.388 539.822 288.077 541.813 286.793C541.804 288.295 541.807 292.731 542.36 293.767C547.659 303.706 568.367 295.627 570.177 286.7C571.206 281.628 561.986 275.68 557.713 275.4C553.741 275.14 550.914 278.347 548.218 280.769Z"/><path fill="#ACE8D4" d="M572.862 302.8C575.155 301.265 576.1 301.017 578.672 300.146L579.326 300.757L579.086 299.997L579.708 300.51L579.941 300.403C577.635 301.78 575.804 302.477 573.62 303.694L572.862 302.8Z"/><path fill="#ACE8D4" d="M551.585 329.354C553.613 329.133 555.152 328.874 557.206 329.075L557.293 329.48C555.432 330.129 554.162 330.482 552.246 330.964L551.585 329.354Z"/><path fill="#10AE6F" d="M418.316 466.701C427.517 465.507 437.165 468.333 444.623 473.734C448.105 476.257 452.013 479.022 450.907 483.862C447.27 486.734 439.375 481.136 431.093 483.736C410.707 490.135 411.441 507.963 402.774 522.949C396.516 533.769 383.218 543.999 371.165 546.405C351.275 550.376 338.028 543.013 322.126 532.816C337.61 537.481 346.236 545.382 364.563 542.44C374.5 540.778 383.398 535.311 389.372 527.198C385.109 530.567 381.099 534.059 376.119 536.401C362.57 542.772 345.369 539.634 332.527 532.964C327.872 530.617 323.798 527.083 318.24 527.759C309.264 528.851 300.158 537.902 301.842 547.404C302.863 553.161 307.083 556.221 311.593 559.402L311.136 559.247L310.378 558.979C303.425 556.588 300.527 553.593 297.272 547.269C294.798 539.132 295.183 531.265 301.079 524.518C307.472 517.201 314.601 516.644 323.593 515.922C314.849 509.781 304.55 507.942 294.149 511.394C286.305 513.997 283.707 519.646 280.545 526.641C281.532 519.895 282.792 512.863 288.432 508.034C308.542 490.815 331.236 510.448 352.1 510.218C367.817 510.044 379.373 500.965 389.443 490.73C377.544 497.658 362.83 506.263 348.654 505.378C333.545 504.434 318.631 491.335 334.56 478.092C332.359 482.347 329.706 489.222 334.626 492.703C354.73 506.929 375.528 481.775 392.494 473.709C401.416 469.467 408.676 467.564 418.316 466.701Z"/><path fill="#ACE8D4" d="M372.968 519.13L373.137 519.199C371.521 521.944 362.86 525.05 359.636 525.803C351.831 527.627 346.271 525.865 339.691 521.684L339.371 521.372L339.459 520.746C351.995 527.781 360.709 525.138 372.968 519.13Z"/><path fill="#10AE6F" d="M412.669 336.175C424.713 339.31 439.093 341.083 450.221 345.529C458.547 348.855 467.774 362.186 474.066 368.694C495.402 390.762 521.918 401.019 550.547 410.077C563.911 414.306 592.449 418.647 564.535 433.436C560.33 435.71 555.92 435.519 551.511 433.629C550.957 433.39 550.404 433.146 549.854 432.898C551.455 431.034 553.135 428.998 554.782 427.198C546.788 431.414 543.358 433.827 534.299 430.958L541.458 423.765C537.688 425.882 526.962 431.61 523.354 427.539L523.249 426.577C527.063 423.917 528.415 422.703 531.454 418.896C525.897 422.929 522.163 425.14 514.692 424.219C513.022 424.013 511.595 423.561 510.575 422.207L510.749 421.274C512.038 420.436 512.246 420.269 513.656 419.709L512.993 418.164C505.215 419.624 501.444 420.079 494.717 415.353C498.038 414.128 502.967 412.401 505.826 410.53C500.875 411.509 487.878 414.378 484.537 408.981C485.263 406.916 495.982 402.666 499.338 400.312C492.373 402.781 478.944 408.292 473.131 401.006C474.39 398.895 482.191 397.242 485.864 395.54L486.577 395.206C481.499 396.125 467.749 398.743 464.928 393.236C466.682 390.357 473.01 389.777 477.592 386.846L478.107 386.509C466.993 389.516 460.421 389.773 451.112 382.056C458.831 381.365 460.988 381.207 468.048 378.121C457.053 379.893 455.244 380.64 445.217 375.827C448.237 374.308 452.184 373.086 455.442 371.973C444.659 372.095 442.392 372.56 433.369 365.66C435.122 365.396 437.314 365.238 439.113 365.055L439.579 363.514C432.402 362.353 428.4 361.003 423.822 354.967C431.904 354.991 436.349 355.04 444.253 352.858C431.379 350.991 418.226 350.167 412.669 336.175Z"/><path fill="#ACE8D4" d="M439.579 363.514C444.019 363.43 446.594 363.503 451.003 363.918C447.505 364.354 442.495 365.132 439.113 365.055L439.579 363.514Z"/><path fill="#ACE8D4" d="M512.993 418.164C516.648 416.687 519.085 415.435 522.588 413.58C519.454 416.393 517.668 418.086 513.656 419.709L512.993 418.164Z"/><path fill="#D8AE59" d="M203.955 239.256C205.425 240.354 210.866 248.835 212.744 251.127C216.156 255.291 218.571 258.309 222.769 261.957C250.1 285.699 286.193 298.349 320.535 307.927C324.594 315.74 326.34 317.754 332.744 323.976C332.87 327.348 335.478 331.975 337.2 334.86C328.191 332.174 318.834 330.401 309.851 327.807C273.428 317.291 191.877 290.232 203.955 239.256Z"/><path fill="#D8AE59" d="M205.195 287.746C207.811 289.104 214.294 295.117 217.285 297.107C221.903 300.18 226.823 302.87 231.693 305.432C263.175 321.992 299.469 331.567 334.248 338.062C335.67 338.328 338.927 339.189 340.054 339.749C341.697 340.567 352.371 347.601 352.734 348.389C354.545 352.321 355.626 354.872 358.196 358.885C349.224 358.212 341.462 356.866 332.611 355.376C328.271 354.646 323.426 354.53 318.82 353.788C288.833 348.954 255.108 340.481 229.576 323.379C216.863 314.864 207.745 302.929 205.195 287.746Z"/><path fill="#10AE6F" d="M667.045 401.37C673.715 417.461 673.241 432.132 671.083 448.888C683.32 436.791 679.584 423.466 675.425 409.083C686.027 424.04 689.486 436.755 685.556 454.923C706.047 458.77 714.228 447.279 724.675 448.1C727.361 448.312 729.058 449.416 730.779 451.442C733.091 454.164 734.364 457.349 734.089 460.952C733.592 467.458 728.763 473.882 726.772 480.108C723.431 490.559 722.647 501.494 721.775 512.35C714.672 518.276 713.919 516.186 710.816 525.929C697.444 512.199 709.968 506.155 713.853 493.594L714.073 492.87C716.486 484.558 717.562 478.407 717.685 469.83C715.784 467.202 714.988 466.275 712.721 463.944C704.859 467.124 692.201 475.876 685.087 480.658C687.198 470.354 688.714 464.018 679.392 456.976L678.597 456.947C672.377 456.685 667.315 458.417 662.303 458.611C644.077 459.32 640.734 455.413 624.464 465.367C625.916 463.618 627.633 461.684 629.383 460.367C638.873 453.225 646.677 455.053 642.873 440.594C640.277 430.73 637.225 425.689 631.81 417.403C636.482 420.552 640.294 423.371 644.09 427.528C652.792 437.06 653.398 442.179 653.06 454.358C666.764 439.62 667.197 419.878 667.045 401.37Z"/><path fill="#10AE6F" d="M500.917 532.045C513.455 535.294 519.358 537.952 532.46 539.17C531.496 544.956 529.608 550.55 526.868 555.737C518.522 571.842 502.664 578.118 485.759 582.703C480.796 584.049 474.43 584.633 469.359 586.118C459.758 588.929 448.72 605.797 444.623 614.335L442.899 617.729C435.767 621.611 434.938 621.81 429.661 627.753C427.011 623.154 426.529 621.865 427.479 616.449C429.359 605.728 438.654 603.737 443.832 595.814C447.568 590.098 449.743 582.492 453.083 576.177C478.106 566.252 488.798 556.578 500.917 532.045Z"/><path fill="#10AE6F" d="M359.299 349.43C363.19 350.601 372.553 353.606 375.989 354.105C389.812 356.111 404.355 356.429 418.228 355.842C420.759 359.313 423.708 362.46 427.009 365.212C428.267 366.032 428.323 365.926 428.963 367.248C433.543 372.444 435.301 373.155 441.026 376.858C441.826 377.522 442.803 378.273 443.514 379.004C445.537 383.127 446.982 384.259 450.44 387.063C435.139 392.188 399.343 404.889 389.939 384.113C389.379 382.986 389.388 381.655 388.523 379.824C379.958 376.13 375.837 373.155 370.451 365.603L370.579 365.264L371.264 364.755C371.336 364.084 371.416 363.415 371.504 362.746C365.511 358.804 363 355.575 359.299 349.43Z"/><path fill="#10AE6F" d="M441.026 376.858C441.826 377.522 442.803 378.273 443.514 379.004C445.537 383.127 446.982 384.259 450.44 387.063C435.139 392.188 399.343 404.889 389.939 384.113C389.379 382.986 389.388 381.655 388.523 379.824C397.744 381.943 433.575 382.273 441.026 376.858Z"/><defs><linearGradient id="gradient_0" gradientUnits="userSpaceOnUse" x1="417.90042" y1="372.37061" x2="414.06992" y2="387.74838"><stop offset="0" stop-color="#D6E0EF"/><stop offset="1" stop-color="#E5FEF7"/></linearGradient></defs><path fill="url(#gradient_0)" d="M441.026 376.858C441.826 377.522 442.803 378.273 443.514 379.004C433.741 382.593 423.465 384.627 413.062 385.031C408.042 385.181 391.993 383.081 389.939 384.113C389.379 382.986 389.388 381.655 388.523 379.824C397.744 381.943 433.575 382.273 441.026 376.858Z"/><path fill="#10AE6F" d="M359.299 349.43C363.19 350.601 372.553 353.606 375.989 354.105C389.812 356.111 404.355 356.429 418.228 355.842C420.759 359.313 423.708 362.46 427.009 365.212C411.604 368.748 386.541 367.927 371.504 362.746C365.511 358.804 363 355.575 359.299 349.43Z"/><path fill="#D0ECEB" d="M371.504 362.746C386.541 367.927 411.604 368.748 427.009 365.212C428.267 366.032 428.323 365.926 428.963 367.248C414.417 370.523 399.366 371.8 384.601 369.216C379.966 368.405 375.094 366.04 370.451 365.603L370.579 365.264L371.264 364.755C371.336 364.084 371.416 363.415 371.504 362.746Z"/><path fill="#10AE6F" d="M730.203 305.006C728.63 316.069 724.341 322.327 715.699 329.392L717.646 329.991C718.594 333.732 714.358 339.949 711.891 342.633C711.83 344.365 711.826 345.524 711.917 347.253L711.29 348.064C706.933 358.263 701.976 359.678 692.422 363.675C697.28 362.925 700.496 361.874 705.161 360.45C701.133 369.634 698.201 371.267 689.141 374.966C691.426 374.781 694.728 373.926 695.427 376.563C692.637 381.823 685.516 383.356 680.204 383.875C683.48 384.624 685.02 384.856 688.37 385.153C682.65 391.459 681.062 391.853 672.727 391.596C675.465 393.274 676.483 393.751 679.411 394.997C678.008 396.857 676.441 398.927 674.224 399.713C671.696 399.312 667.205 393.914 666.777 391.881C663.041 374.141 656.152 352.336 652.739 335.088C665.644 339.738 664.488 346.566 669.434 356.371C672.097 361.651 685.672 360.982 690.3 357.114C695.806 352.511 698.418 344.763 699.824 337.711C700.378 335.037 696.545 331.345 694.906 329.487C699.611 326.655 704.676 324.306 709.466 321.259C717.058 316.429 723.368 310.816 730.203 305.006Z"/><path fill="#D0ECEB" d="M703.326 348.894C706.117 347.096 709.2 344.659 711.891 342.633C711.83 344.365 711.826 345.524 711.917 347.253L711.29 348.064C711.18 346.821 711.393 347.363 710.707 346.415C708.569 346.476 705.526 348.046 703.326 348.894Z"/><path fill="#ACE8D4" d="M715.699 329.392L717.646 329.991C712.999 332.283 710.793 333.221 705.811 334.412L715.699 329.392Z"/><path fill="#D8AE59" d="M232.589 333.316C234.502 334.081 236.917 335.583 238.862 336.536C271.624 352.603 310.416 357.779 346.459 360.658C351.73 361.079 357.121 360.96 362.434 361.721L363.073 361.818C364.166 364.051 370.469 374.353 370.65 375.105C361.831 375.206 352.536 376.078 343.767 376.038C312.327 375.898 245.248 367.055 232.589 333.316Z"/><path fill="#D8AE59" d="M265.627 368.607C272.266 369.54 283.131 373.739 290.983 375.182C317.569 380.068 346.268 379.768 372.995 376.339C376.079 378.291 379.656 380.259 382.847 382.102C384.072 384.916 385.951 386.798 385.223 389.381L382.882 390.284C352.282 397.341 313.906 398.109 284.704 384.615C278.322 381.665 268.095 375.532 265.627 368.607Z"/><path fill="#D8AE59" d="M418.384 411.497C425.502 417.686 425.71 415.5 433.657 418.482C435.924 419.332 437.227 422.81 442.665 425.134L444.901 425.556C449.193 427.324 450.184 427.585 453.286 431.192L454.599 431.934C457.367 432.872 464.165 434.924 466.487 436.039C462.404 441.462 458.088 444.214 452.185 447.318C448.77 447.943 440.969 447.885 438.056 445.913C437.497 444.347 437.705 444.339 436.652 443.241C435.876 443.355 435.099 443.463 434.321 443.565C428.293 444.355 423.935 444.408 418.95 440.595C418.787 440.015 417.519 438.89 416.999 438.359C412.546 438.996 400.32 439.874 397.202 436.291C399.964 434.498 403.059 434.605 405.796 433.422C412.807 430.392 425.114 424.737 430.019 418.879C415.89 427.171 401.273 435.359 384.429 433.989C377.843 433.453 370.995 433.521 365.509 429.305L365.436 428.632C368.981 427.352 377.342 426.578 381.504 425.701C396.019 422.64 406.107 419.455 418.384 411.497Z"/><path fill="#D8AE59" d="M442.665 425.134L444.901 425.556C449.193 427.324 450.184 427.585 453.286 431.192L454.599 431.934C457.367 432.872 464.165 434.924 466.487 436.039C462.404 441.462 458.088 444.214 452.185 447.318C448.77 447.943 440.969 447.885 438.056 445.913C437.497 444.347 437.705 444.339 436.652 443.241C435.876 443.355 435.099 443.463 434.321 443.565C428.293 444.355 423.935 444.408 418.95 440.595C418.787 440.015 417.519 438.89 416.999 438.359C427.514 435.927 434.228 431.44 442.665 425.134Z"/><path fill="#D8AE59" d="M453.286 431.192L454.599 431.934C457.367 432.872 464.165 434.924 466.487 436.039C462.404 441.462 458.088 444.214 452.185 447.318C448.77 447.943 440.969 447.885 438.056 445.913C437.497 444.347 437.705 444.339 436.652 443.241C443.336 440.678 449.47 437.63 453.286 431.192Z"/><path fill="#EFE8CD" d="M453.286 431.192L454.599 431.934C448.684 440.576 444.191 440.664 438.056 445.913C437.497 444.347 437.705 444.339 436.652 443.241C443.336 440.678 449.47 437.63 453.286 431.192Z"/><path fill="#EFE8CD" d="M442.665 425.134L444.901 425.556C442.244 426.679 438.213 430.96 435.072 432.95C429.559 436.442 424.498 437.984 418.95 440.595C418.787 440.015 417.519 438.89 416.999 438.359C427.514 435.927 434.228 431.44 442.665 425.134Z"/><path fill="#10AE6F" d="M626.464 307.921L627.613 307.907C628.088 309.367 628.527 310.838 628.927 312.32C630.942 322.332 636.912 331.269 648.499 330.107C650.943 329.861 653.85 328.634 656.189 327.77C658.194 332.661 662.208 335.247 665.647 339.358C668.358 342.6 671.088 347.487 673.962 350.256C679.528 352.193 685.811 350.473 691.376 349.687C691.728 353.002 686.405 355.736 683.626 356.406C669.404 359.879 670.576 348.43 664.157 340.276C662.187 337.774 655.213 332.691 651.734 333.483C650.682 334.497 650.011 335.57 650.145 337.135C651.744 355.775 660.014 373.846 662.55 392.417C664.314 405.331 663.848 422.393 657.459 433.899C657.707 418.116 657.232 403.166 652.368 387.904C648.046 374.521 641.439 361.889 635.641 349.101C628.935 334.313 622.785 324.424 626.464 307.921Z"/><path fill="#10AE6F" d="M488.528 416.678C491.93 415.565 493.362 418.95 496.315 420.178C503.871 423.32 511.443 428.222 519.626 428.536C523.789 432.452 525.693 433.61 531.766 432.49C538.77 435.983 539.869 435.741 547.721 434.578C550.823 436.821 553.537 437.889 557.208 438.963C554.074 446.112 548.17 452.142 539.718 451.179L539.434 450.55C541.27 447.219 543.213 444.073 544.134 440.381C540.5 445.747 537.065 450.585 530.277 452.001C528.404 452.392 524.636 452.448 523.271 450.891C523.694 447.609 529.594 445.864 528.927 441.017L528.486 440.812C521.103 448.181 520.116 450.109 509.048 450.479L504.256 447.846C511.353 444.594 513.01 443.44 516.54 436.255C511.011 442.072 507.771 444.822 499.134 445.096C497.337 445.153 497.221 445.156 496.009 444.308C496.829 441.13 501.476 439.076 503.625 436.54C504.759 435.203 505.565 433.693 506.387 432.16C498.795 439.498 490.621 444.496 479.998 439.397L479.605 438.338C478.232 437.281 478.527 437.606 476.579 437.306L476.421 436.926C472.811 435.872 471.436 435.064 468.252 433.243C470.812 431.325 473.637 430.097 476.516 428.698L477.146 427.445L476.797 426.759C480.018 424.409 483.147 421.943 486.414 419.666C487.545 418.999 487.771 418.03 488.528 416.678Z"/><path fill="#D0ECEB" d="M476.421 436.926C480.978 436.16 488.269 432.992 490.245 433.009C488.733 436.384 482.801 437.643 479.998 439.397L479.605 438.338C478.232 437.281 478.527 437.606 476.579 437.306L476.421 436.926Z"/><path fill="#D0ECEB" d="M476.797 426.759C480.018 424.409 483.147 421.943 486.414 419.666C483.703 424.231 481.294 426.307 476.516 428.698L477.146 427.445L476.797 426.759Z"/><defs><linearGradient id="gradient_1" gradientUnits="userSpaceOnUse" x1="801.35919" y1="277.36151" x2="723.97858" y2="297.44006"><stop offset="0" stop-color="#BB9245"/><stop offset="1" stop-color="#EDC469"/></linearGradient></defs><path fill="url(#gradient_1)" d="M734.995 305.942C754.049 294.746 769.923 284.649 783.96 266.347C788.01 261.066 791.355 250.76 793.715 247.74C795.133 248.801 795.58 251.923 795.816 253.724C797.588 267.241 790.73 279.083 783.152 289.35C775.914 299.158 748.902 320.749 738.066 324.308C733.404 327.322 727.384 329.473 722.132 331.134C725.068 325.774 729.498 321.174 732.767 314.932L734.995 305.942Z"/><path fill="#D8AE59" d="M732.767 314.932L732.684 315.384C732.097 318.444 730.084 322.359 730.951 324.54C734.658 326.012 734.766 324.586 738.066 324.308C733.404 327.322 727.384 329.473 722.132 331.134C725.068 325.774 729.498 321.174 732.767 314.932Z"/><path fill="#D8AE59" d="M699.175 375.671C716.68 378.048 721.796 378.028 739.047 372.894C738.668 373.597 738.274 374.292 737.866 374.979C734.469 380.671 727.525 386.169 721.048 387.76L721.645 390.298C721.382 391.726 718.974 393.477 717.766 394.276C707.483 401.071 697.274 398.629 687.086 393.892C694.361 400.322 702.193 400.226 711.399 400.4C707.221 404.26 705.149 405.316 699.608 407.056C696.991 407.805 696.631 407.242 696.197 410.016L696.028 410.216C691.09 413.209 689.155 413.833 683.53 415.184C680.892 411.998 677.755 406.956 675.43 403.4C677.036 402.285 678.644 401.054 680.219 399.886C681.316 397.82 681.438 397.311 682.093 395.024C688.801 390.481 695.266 382.728 699.175 375.671Z"/><path fill="#D8AE59" d="M680.219 399.886C680.629 400.834 681.102 402.027 681.552 402.928L681.579 403.705C686.554 408.301 691.642 407.912 696.028 410.216C691.09 413.209 689.155 413.833 683.53 415.184C680.892 411.998 677.755 406.956 675.43 403.4C677.036 402.285 678.644 401.054 680.219 399.886Z"/><path fill="#EFE8CD" d="M721.645 390.298C714.612 390.094 701.632 392.103 694.636 386.868C696.698 386.735 700.195 387.652 702.356 388.081C708.737 389.349 714.055 389.414 720.375 387.923L721.048 387.76L721.645 390.298Z"/><path fill="#EFE8CD" d="M681.552 402.928L682.189 403.169C690.361 406.295 689.988 407.125 699.608 407.056C696.991 407.805 696.631 407.242 696.197 410.016L696.028 410.216C691.642 407.912 686.554 408.301 681.579 403.705L681.552 402.928Z"/><path fill="#D8AE59" d="M387.462 391.088C392.496 393.89 396.238 396.745 400.662 400.415C376.946 410.147 336.046 414.653 311.876 405.775C304.866 403.092 300.956 400.857 297.028 394.328C328.242 401.086 356.757 400.254 387.462 391.088Z"/><path fill="#D8AE59" d="M795.328 282.87C795.371 283.193 795.414 283.516 795.457 283.839C793.485 318.021 740.365 345.453 714.659 347.676C714.439 345.254 720.172 336.326 721.863 333.41C749.737 324.664 778.05 306.638 795.328 282.87Z"/><path fill="#D8AE59" d="M400.614 401.529C406.328 407.367 409.913 407.879 417.496 410.173C416.786 410.707 416.059 411.216 415.315 411.7C409.965 415.189 403.495 417.733 397.463 419.699C378.669 425.826 364.831 426.571 345.72 422.519C338.135 420.345 332.707 418.709 326.713 413.572C348.342 413.737 381.324 411.428 400.614 401.529Z"/><path fill="#10AE6F" d="M339.139 326.283C342.475 327.111 349.056 331.008 353.038 332.261C369.937 337.575 391.049 340.464 408.704 340.498C410.295 344.625 413.341 348.906 415.838 352.631C411.735 353 406.791 352.919 402.659 352.667C390.714 351.941 378.447 351.59 366.724 349.096C355.737 346.757 341.934 337.472 339.139 326.283Z"/><path fill="#10AE6F" d="M327.22 307.683C333.841 308.971 347.161 315.217 355.839 317.288C362.12 320.326 380.928 320.411 385.746 323.45C391.973 327.378 398.142 334.079 406.487 338.389C401.338 338.944 393.851 336.925 388.575 335.98C368.308 332.35 336.074 329.786 327.22 307.683Z"/><defs><linearGradient id="gradient_2" gradientUnits="userSpaceOnUse" x1="769.05884" y1="318.90228" x2="716.21973" y2="366.8537"><stop offset="0" stop-color="#BC914F"/><stop offset="1" stop-color="#EEC769"/></linearGradient></defs><path fill="url(#gradient_2)" d="M776.522 324.052C776.822 324.409 777.028 325.057 776.862 325.478C768.081 347.672 731.17 363.162 709.975 361.808C709.38 361.408 709.709 361.701 709.175 360.756C709.732 357.987 713.015 352.764 714.529 350.108C740.884 346.295 755.491 339.831 776.522 324.052Z"/><path fill="#D8AE59" d="M757.477 350.043C757.633 350.317 757.796 350.465 757.646 350.809C748.634 371.574 720.714 378.421 700.569 374.396L699.957 374.306C699.825 373.358 702.767 371.024 703.706 370.047C705.817 367.85 707.031 365.973 708.532 363.358C726.131 365.196 742.34 358.096 757.477 350.043Z"/><path fill="#10AE6F" d="M628.233 270.789L628.803 269.886C628.569 269.129 628.396 268.224 627.505 267.919C611.589 262.467 601.5 278.152 587.733 281.349C581.811 282.724 573.385 278.16 572.572 271.871L573.043 271.583C574.328 272.197 576.76 273.342 577.958 273.875C587.144 277.961 600.122 264.568 608.813 261.323C616.229 258.554 624.641 256.639 632.29 259.721L633.071 260.695C632.464 263.504 631.778 266.336 631.437 269.183C630.723 271.146 631.071 271.124 629.698 272.27L628.559 271.446L628.233 270.789Z"/><path fill="#10AE6F" d="M656.048 532.368C658.103 532.466 658.088 534.388 658.457 536.296C659.694 542.677 664.324 545.999 668.393 550.883C664.517 555.315 659.648 559.371 655.185 563.252C649.594 568.372 646.537 567.096 645.314 559.365C643.47 547.714 644.051 537.819 656.048 532.368Z"/><path fill="#10AE6F" d="M595.673 340.362C596.063 343.009 594.893 347.078 594.706 349.837C593.87 362.192 589.093 376.624 588.276 388.542C591.259 388.488 594.177 388.506 597.163 388.607C608.422 388.988 622.775 398.692 621.416 411.233C619.068 410.14 620.64 408.053 619.051 405.631C617.073 402.616 614.741 400.598 612 398.388C598.224 389.025 582.106 394.02 567.099 396.47C585.556 380.171 589.401 362.407 595.673 340.362Z"/><path fill="#10AE6F" d="M700.62 511.99L701.196 512.247C702.828 521.62 703.337 521.632 710.611 528.335C705.864 533.878 700.079 538.192 694.37 542.711C692.49 543.959 691.524 544.983 689.387 545.031C682.641 542.075 688.466 525.232 690.139 519.881C691.643 515.068 696.318 513.733 700.62 511.99Z"/><path fill="#10AE6F" d="M484.957 464.322L485.459 465.521C483.835 466.305 482.239 467.147 480.674 468.045C432.93 495.927 451.977 544.296 424.239 560.626C453.107 532.717 419.295 493.502 484.957 464.322Z"/><path fill="#10AE6F" d="M450.999 388.387C453.898 389.293 457.572 391.433 460.154 392.973C446.742 403.184 430.508 407.426 413.903 404.1C408.495 402.333 406.768 400.872 403.624 396.455C423.399 398.433 433.16 396.273 450.999 388.387Z"/><path fill="#10AE6F" d="M460.992 395.192C463.924 397.518 468.177 399.355 468.929 402.436C469.243 402.968 469.621 403.797 470.045 404.098C468.215 405.414 463.786 408.722 461.953 409.604L460.776 408.789L458.417 409.219C446.269 413.804 433 417.926 422.611 407.526C438.695 407.591 448.081 403.676 460.992 395.192Z"/><path fill="#D0ECEB" d="M458.417 409.219C461.762 406.9 465.139 405.167 468.929 402.436C469.243 402.968 469.621 403.797 470.045 404.098C468.215 405.414 463.786 408.722 461.953 409.604L460.776 408.789L458.417 409.219Z"/><path fill="#10AE6F" d="M380.69 613.52C381.223 613.657 380.916 613.512 381.415 614.231C379.057 623.466 380.876 624.644 386.514 632.111C381.581 635.52 376.14 638.437 370.809 641.175C368.951 641.88 367.284 642.731 365.333 642.557C361.353 638.902 365.221 627.372 367.362 623.139C370.258 617.415 374.815 615.215 380.69 613.52Z"/><path fill="#10AE6F" d="M648.69 243.304L648.931 243.855C649.854 246.01 650.593 248.444 651.032 250.754C651.832 254.967 652.8 260.958 658.594 257.913C661.292 256.495 662.303 252.459 663.181 249.738C665.373 253.525 665.705 254.249 666.823 258.631C664.696 262.811 663.823 263.71 660.022 266.488C669.105 266.75 676.344 271.396 675.919 281.388L675.497 281.657C665.859 275.474 665.597 272.736 652.157 270.165C650.78 271.205 649.403 272.162 648.197 273.391L647.506 271.713C652.477 261.136 650.124 254.819 647.87 243.644L648.69 243.304Z"/><path fill="#10AE6F" d="M461.953 409.604C463.786 408.722 468.215 405.414 470.045 404.098C471.722 405.267 477.847 409.368 479.031 410.501C478.526 411.078 476.566 413.249 476.244 413.755C465.503 422.108 450.167 426.934 438.496 417.423C448.459 414.857 452.381 414.53 461.953 409.604Z"/><path fill="#10AE6F" d="M422.838 615.011C424.073 616.673 423.301 620.201 424.014 622.478C425.144 626.082 427.407 629.312 429.45 632.415C424.623 636.712 421.38 639.101 415.827 642.397C414.185 642.99 414.235 642.961 412.482 643.052C406.792 640.355 409.997 629.696 411.739 625.028C413.763 619.605 417.699 617.11 422.838 615.011Z"/><path fill="#D8AE59" d="M466.487 436.039L467.367 437.382C469.947 439.156 474.226 440.764 477.224 442.016L478.203 442.454L485.96 444.727C483.679 448.018 481.302 449.813 477.499 451.269C475.051 452.038 474.481 452.044 471.895 452.147C469.387 453.06 466.019 452.604 464.403 450.318C459.104 450.849 457.456 450.575 452.532 449.315C452.284 448.841 452.259 447.93 452.185 447.318C458.088 444.214 462.404 441.462 466.487 436.039Z"/><path fill="#D8AE59" d="M477.224 442.016L478.203 442.454L485.96 444.727C483.679 448.018 481.302 449.813 477.499 451.269C475.051 452.038 474.481 452.044 471.895 452.147C469.387 453.06 466.019 452.604 464.403 450.318C470.309 448.596 472.992 446.188 477.224 442.016Z"/><path fill="#EFE8CD" d="M477.224 442.016L478.203 442.454C475.962 445.407 468.741 450.361 468.234 451.457C469.532 452.149 470.429 452.066 471.895 452.147C469.387 453.06 466.019 452.604 464.403 450.318C470.309 448.596 472.992 446.188 477.224 442.016Z"/><path fill="#EFE8CD" d="M466.487 436.039L467.367 437.382C461.738 443.259 459.359 445.051 452.532 449.315C452.284 448.841 452.259 447.93 452.185 447.318C458.088 444.214 462.404 441.462 466.487 436.039Z"/><path fill="#10AE6F" d="M479.031 410.501L480.305 411.147C482.753 413.523 485.158 415.726 488.528 416.678C487.771 418.03 487.545 418.999 486.414 419.666C483.147 421.943 480.018 424.409 476.797 426.759C471.342 429.225 459.231 431.779 454.465 426.826C455.078 424.988 458.915 424.478 460.938 424.084C466.572 422.986 470.649 419.926 475.119 416.405C475.7 415.322 475.805 414.923 476.244 413.755C476.566 413.249 478.526 411.078 479.031 410.501Z"/><path fill="#D0ECEB" d="M479.031 410.501L480.305 411.147C478.531 413.11 477.17 414.693 475.119 416.405C475.7 415.322 475.805 414.923 476.244 413.755C476.566 413.249 478.526 411.078 479.031 410.501Z"/><path fill="#10AE6F" d="M682.856 248.947L683.35 249.549C685.153 259.221 682.385 266.303 677.727 274.499C676.335 272.165 675.633 271.186 673.919 269.073C671.07 266.316 669.925 265.807 666.258 264.458C670.604 259.566 677.782 253.599 682.856 248.947Z"/><path fill="#10AE6F" d="M645.346 248.417C646.338 249.708 647.156 255.37 647.191 257.062C647.351 264.999 642.516 270.623 637.383 275.868L636.82 275.788C636.054 274.29 635.908 269.893 636.022 268.039C636.554 259.378 639.159 254.148 645.346 248.417Z"/><path fill="#D8AE59" d="M485.96 444.727L487.927 444.783C490.937 445.338 491.331 445.532 494.01 447.038L494.419 447.712L493.822 449.431C494.867 449.187 496.366 448.207 496.515 448.181C499.113 447.72 503.404 450.85 505.537 452.172L506.787 452.95L506.922 453.54L478.957 452.57L477.499 451.269C481.302 449.813 483.679 448.018 485.96 444.727Z"/><path fill="#EFE8CD" d="M485.96 444.727L487.927 444.783C484.288 448.977 480.763 450.496 478.957 452.57L477.499 451.269C481.302 449.813 483.679 448.018 485.96 444.727Z"/><path fill="#40B184" d="M618.355 369.567C610.727 350.16 606.4 331.352 613.154 311.026C614.656 306.503 617.312 302.827 618.577 298.121L619.499 297.782C619.314 300.111 616.201 306.805 615.274 310.629C609.936 332.63 611.209 347.916 619.253 369.166L618.355 369.567Z"/><path fill="#40B184" d="M461.686 530.458C461.838 532.335 459.622 536.786 458.572 538.557C452.78 548.331 442.724 556.96 432.027 560.603C432.192 559.986 442.721 551.992 444.228 550.741C451.821 544.439 456.696 538.917 461.686 530.458Z"/><path fill="#40B184" d="M693.075 333.501C690.48 331.015 688.179 328.05 686.396 324.518C682.576 316.954 679.209 307.054 679.023 298.461C678.989 296.889 680.744 295.349 680.928 293.842C681.37 290.205 677.817 285.854 676.004 283.032L676.968 283.77C683.214 288.522 684.866 291.227 680.551 298.164C681.009 307.328 686.583 326.557 693.602 332.701L693.075 333.501Z"/><path fill="#10AE6F" d="M641.534 289.16C646.297 290.778 651.139 292.178 655.577 294.507C654.345 295.719 654.06 296.26 652.545 296.97C653.516 298.691 654.166 299.187 653.466 300.958C648.706 299.844 644.489 292.984 641.534 289.16Z"/><path fill="#40B184" d="M632.29 259.721C632.553 258.953 632.83 258.19 633.123 257.432C635.299 251.822 640.676 244.155 646.312 241.705C648.059 241.893 647.211 241.571 648.69 243.304L647.87 243.644C642.888 243.43 635.169 256.506 633.071 260.695L632.29 259.721Z"/><path fill="#40B184" d="M677.768 334.277C684.054 336.263 683.691 339.128 680.62 344.014C676.547 342.509 675.067 337.884 677.768 334.277Z"/><path fill="#40B184" d="M693.602 332.701C697.249 336.877 694.517 345.667 689.741 346.661L689.034 346.37C690.369 341.029 693.581 338.363 693.075 333.501L693.602 332.701Z"/><path fill="#40B184" d="M599.842 446.952C607.598 448.102 615.903 459.55 616.484 467.121C615.961 466.526 616.091 466.755 615.75 466.023C611.22 456.292 607.723 453.449 599.842 446.952Z"/><path fill="#40B184" d="M619.972 483.814C624.478 480.627 626.583 479.804 631.815 478.141L633.025 479.455L632.374 480.113L632.417 480.476L632.869 480.675C628.516 481.931 625.166 482.165 619.972 483.814Z"/><path fill="#40B184" d="M626.464 307.921C627.822 302.568 629.117 299.906 631.91 295.125C629.66 302.896 628.9 304.231 628.927 312.32C628.527 310.838 628.088 309.367 627.613 307.907L626.464 307.921Z"/><path fill="#EFE8CD" d="M506.787 452.95C509.302 453.335 518.957 454.115 519.968 455.365C513.385 456.149 512.242 454.177 506.922 453.54L506.787 452.95Z"/><path fill="#ACE8D4" d="M666.039 313.46C668.146 315.785 674.748 325.973 676.402 328.707C673.548 327.011 666.988 316.682 666.039 313.46Z"/><path fill="#40B184" d="M655.577 294.507C657.431 296.133 658.041 297.067 658.47 299.612C656.425 299.506 656.281 297.286 652.545 296.97C654.06 296.26 654.345 295.719 655.577 294.507Z"/><path fill="#40B184" d="M629.698 272.27C631.071 271.124 630.723 271.146 631.437 269.183C631.431 272.67 631.547 277.207 631.312 280.599C630.333 277.304 629.794 275.763 629.698 272.27Z"/><path fill="#40B184" d="M484.957 464.322C488.23 463.224 489.892 462.541 493.341 462.277L485.459 465.521L484.957 464.322Z"/><path fill="#40B184" d="M493.39 325.154L494.693 324.803C494.368 326.956 494.61 330.45 494.598 332.828C493.543 330.769 493.246 327.457 493.39 325.154Z"/><path fill="#D0ECEB" d="M639.835 278.959L644.849 275.376L646.071 275.554C644.018 277.687 642.616 278.09 639.835 278.959Z"/><path fill="#40B184" d="M644.849 275.376L647.506 271.713L648.197 273.391L646.071 275.554L644.849 275.376Z"/><path fill="#ACE8D4" d="M619.253 369.166C619.979 370.854 620.629 371.684 620.515 373.352C619.272 371.937 619.091 371.265 618.355 369.567L619.253 369.166Z"/></svg>